<svg width="100" height="100" viewBox="0 0 100 100" fill="none" xmlns="http://www.w3.org/2000/svg">
<rect width="100" height="100" fill="#482C77"/>
<path d="M50.4053 34.5V50.5H46.4053V54.5H42.4053V58.5H46.4053V62.5H50.4053V70.5H42.4053V66.5H38.4053V62.5H34.4053V66.5H30.4053V70.5H22.4053V62.5H26.4053V58.5H30.4053V54.5H26.4053V46.5H34.4053V50.5H38.4053V46.5H42.4053V42.5H22.4053V34.5H50.4053ZM82.421 42.5H74.421V70.5H66.421V54.5H54.421V46.5H62.421V42.5H66.421V38.5H70.421V34.5H82.421V42.5Z" fill="black"/>
<path d="M48.4053 32.5612V48.5612H44.4053V52.5612H40.4053V56.5612H44.4053V60.5612H48.4053V68.5612H40.4053V64.5612H36.4053V60.5612H32.4053V64.5612H28.4053V68.5612H20.4053V60.5612H24.4053V56.5612H28.4053V52.5612H24.4053V44.5612H32.4053V48.5612H36.4053V44.5612H40.4053V40.5612H20.4053V32.5612H48.4053ZM80.421 40.5612H72.421V68.5612H64.421V52.5612H52.421V44.5612H60.421V40.5612H64.421V36.5612H68.421V32.5612H80.421V40.5612Z" fill="white"/>
</svg>
